<svg xmlns="http://www.w3.org/2000/svg" viewBox="0 0 220 120" fill="none">
  <path d="M110 96c24-18 30-47 0-76-30 29-24 58 0 76Z" fill="#FFF8ED" stroke="#C99D4F" stroke-width="5"/>
  <path d="M110 98C83 84 68 60 83 27c29 17 39 43 27 71Z" fill="#FFF1D8" stroke="#C99D4F" stroke-width="5"/>
  <path d="M110 98c27-14 42-38 27-71-29 17-39 43-27 71Z" fill="#FFF1D8" stroke="#C99D4F" stroke-width="5"/>
  <path d="M78 100C49 97 30 80 25 50c31 2 52 20 53 50Z" fill="#FFF8ED" stroke="#C99D4F" stroke-width="5"/>
  <path d="M142 100c29-3 48-20 53-50-31 2-52 20-53 50Z" fill="#FFF8ED" stroke="#C99D4F" stroke-width="5"/>
  <path d="M55 105h110" stroke="#7A1F1F" stroke-width="5" stroke-linecap="round"/>
</svg>
