<svg xmlns="http://www.w3.org/2000/svg" viewBox="0 0 180 360" fill="none">
  <path d="M90 0v145" stroke="#A86F16" stroke-width="8" stroke-linecap="round"/>
  <path d="M75 22h30M75 54h30M75 86h30M75 118h30" stroke="#C99D4F" stroke-width="4"/>
  <path d="M58 151c0-18 64-18 64 0v20H58v-20Z" fill="#C99D4F" stroke="#8B5E22" stroke-width="5"/>
  <path d="M38 174c12 45 92 45 104 0H38Z" fill="#D8A73F" stroke="#8B5E22" stroke-width="5"/>
  <path d="M27 174c13 35 113 35 126 0" stroke="#FFF1B8" stroke-width="4" opacity=".7"/>
  <path d="M90 124c13 18 21 32 21 45 0 13-9 22-21 22s-21-9-21-22c0-13 8-27 21-45Z" fill="#FFB000"/>
  <path d="M90 139c7 11 11 20 11 28 0 7-5 13-11 13s-11-6-11-13c0-8 4-17 11-28Z" fill="#FFF6B0"/>
  <path d="M90 220v82" stroke="#A86F16" stroke-width="8" stroke-linecap="round"/>
  <path d="M68 302h44l20 38H48l20-38Z" fill="#C99D4F" stroke="#8B5E22" stroke-width="5"/>
</svg>
