<svg xmlns="http://www.w3.org/2000/svg" viewBox="0 0 600 600" fill="none">
  <g stroke="#FFFFFF" stroke-width="6" stroke-linecap="round" opacity=".95">
    <circle cx="300" cy="300" r="45"/>
    <path d="M300 70c80 80 80 180 0 260-80-80-80-180 0-260Z"/>
    <path d="M300 530c-80-80-80-180 0-260 80 80 80 180 0 260Z"/>
    <path d="M70 300c80-80 180-80 260 0-80 80-180 80-260 0Z"/>
    <path d="M530 300c-80 80-180 80-260 0 80-80 180-80 260 0Z"/>
    <path d="M138 138c113 0 184 71 184 184-113 0-184-71-184-184Z"/>
    <path d="M462 138c0 113-71 184-184 184 0-113 71-184 184-184Z"/>
    <path d="M462 462c-113 0-184-71-184-184 113 0 184 71 184 184Z"/>
    <path d="M138 462c0-113 71-184 184-184 0 113-71 184-184 184Z"/>
  </g>
  <g fill="#C99D4F" opacity=".8">
    <circle cx="300" cy="40" r="8"/><circle cx="300" cy="560" r="8"/><circle cx="40" cy="300" r="8"/><circle cx="560" cy="300" r="8"/>
    <circle cx="118" cy="118" r="7"/><circle cx="482" cy="118" r="7"/><circle cx="482" cy="482" r="7"/><circle cx="118" cy="482" r="7"/>
  </g>
</svg>
